<svg xmlns="http://www.w3.org/2000/svg" xmlns:xlink="http://www.w3.org/1999/xlink" width="109" height="26" viewBox="0 0 109 26">
  <defs>
    <polygon id="airquest-logo-a" points=".012 .179 79.758 .179 79.758 15.191 .012 15.191"/>
    <polygon id="airquest-logo-c" points=".038 .058 28.759 .058 28.759 16.82 .038 16.82"/>
  </defs>
  <g fill="none" fill-rule="evenodd" transform="translate(.39 .5)">
    <g transform="translate(0 .82)">
      <mask id="airquest-logo-b" fill="#fff">
        <use xlink:href="#airquest-logo-a"/>
      </mask>
      <polyline fill="#005086" points="74.376 10.752 79.758 10.752 79.758 15.191 68.545 15.191 68.545 .179 79.758 .179 79.758 4.231 74.404 4.237 74.428 5.641 79.758 5.605 79.758 9.637 74.373 9.606 74.376 10.752" mask="url(#airquest-logo-b)"/>
      <path fill="#005086" d="M8.06639344,4.11147541 L7.18627049,9.37008197 L8.77295082,9.3692623 L8.06639344,4.11147541 Z M14.7508197,9.77643443 L16.4215164,15.1909836 L9.41086066,15.1909836 L8.94918033,12.9377049 L6.85081967,12.9377049 L6.36086066,15.1909836 L0,15.1909836 L4.12991803,0.178688525 L11.8569672,0.178688525 L13.5563525,5.94754098 L14.7508197,9.77643443 L14.7508197,9.77643443 Z" mask="url(#airquest-logo-b)"/>
    </g>
    <path fill="#005086" d="M29.5848361,0.998360656 L23.7834016,0.998360656 L23.7834016,16.0106557 L29.4186475,16.0106557 L29.4186475,10.6739754 L30.8780738,10.6739754 L30.8477459,16.0106557 L36.9793033,16.0106557 L37.0110656,11.782582 C36.9026639,10.332377 36.2340164,9.10860656 35.0688525,8.58258197 C38.8870902,6.79979508 37.1526639,0.652868852 32.5694672,0.998360656 L29.5848361,0.998360656 Z M29.3870902,4.25307377 L30.8627049,4.25307377 L30.8372951,8.2477459 L29.3870902,8.2477459 L29.3870902,4.25307377 L29.3870902,4.25307377 Z"/>
    <g transform="translate(79.713)">
      <mask id="airquest-logo-d" fill="#fff">
        <use xlink:href="#airquest-logo-c"/>
      </mask>
      <path fill="#1A1919" fill-rule="nonzero" d="M27.3328826,3.39661885 C27.7205049,3.39661885 28.0527526,3.26268955 28.3296257,2.99483094 C28.6142255,2.71795786 28.7565254,2.37733959 28.7565254,1.97297611 C28.7565254,1.58020268 28.6174449,1.24473553 28.3392841,0.966574667 C28.0611232,0.688413806 27.7256561,0.549333376 27.3328826,0.549333376 C26.9581381,0.549333376 26.6316855,0.678111552 26.3535246,0.935667905 C26.0573348,1.2112532 25.9092399,1.55702261 25.9092399,1.97297611 C25.9092399,2.37347624 26.0463886,2.71087506 26.3206862,2.98517258 C26.5949837,3.25947009 26.9323825,3.39661885 27.3328826,3.39661885 Z M27.3328826,3.15902312 C27.0083616,3.15902312 26.7314885,3.04376665 26.5022634,2.81325371 C26.2717504,2.58274078 26.156494,2.30264825 26.156494,1.97297611 C26.156494,1.65489402 26.2698188,1.37995261 26.4964684,1.1481519 C26.7269813,0.911200051 27.0057861,0.792724129 27.3328826,0.792724129 C27.6561158,0.792724129 27.9329889,0.911200051 28.1635019,1.1481519 C28.3914392,1.38124039 28.5054079,1.6561818 28.5054079,1.97297611 C28.5054079,2.2987849 28.3907953,2.57823354 28.1615702,2.81132204 C27.932345,3.04312276 27.6561158,3.15902312 27.3328826,3.15902312 Z M27.1223303,2.7649619 L27.1223303,2.2067085 L27.2092556,2.2067085 L27.3000442,2.21250352 C27.3631455,2.21636687 27.4101495,2.22473745 27.4410563,2.23761527 C27.4977187,2.25950756 27.5363521,2.29814101 27.5569566,2.35351562 C27.5698345,2.38699795 27.578205,2.45138704 27.5820684,2.54668289 C27.5859317,2.64197874 27.5943023,2.71473841 27.6071801,2.7649619 L27.6071801,2.7649619 L28.0012414,2.7649619 L27.9877196,2.72053343 C27.9825685,2.70508005 27.9790271,2.68962666 27.9770954,2.67417328 C27.9751638,2.6587199 27.9741979,2.64326652 27.9741979,2.62781314 L27.9741979,2.62781314 L27.9741979,2.48680104 C27.9741979,2.32582832 27.9278378,2.20799629 27.8351175,2.13330494 C27.784894,2.09338371 27.7102027,2.06312084 27.6110435,2.04251633 C27.7192171,2.03092629 27.8103277,1.9955123 27.8843752,1.93627433 C27.9584226,1.87703637 27.9954463,1.78109663 27.9954463,1.64845511 C27.9954463,1.47460457 27.9252622,1.34904585 27.784894,1.27177894 C27.702476,1.22670658 27.5988096,1.19966317 27.4738947,1.19064869 C27.4520024,1.18936091 27.3435068,1.18839508 27.1484079,1.18775118 C27.0400196,1.18739347 26.9466355,1.18713512 26.8682557,1.18697613 L26.7089524,1.18678535 L26.7089524,2.7649619 L27.1223303,2.7649619 Z M27.2826591,1.92275263 L27.1223303,1.92275263 L27.1223303,1.46494621 L27.2227773,1.46494621 C27.3257998,1.46494621 27.4056423,1.47589235 27.4623047,1.49778464 C27.5472983,1.53126697 27.5897951,1.59114882 27.5897951,1.6774302 C27.5897951,1.76371158 27.5627517,1.82616899 27.5086648,1.86480245 C27.454578,1.9034359 27.3792428,1.92275263 27.2826591,1.92275263 L27.2826591,1.92275263 Z" mask="url(#airquest-logo-d)"/>
      <path fill="#005086" d="M1.98831967,2.19139344 C3.85512295,-1.11022302e-16 12.7803279,-0.421516393 13.5854508,4.21987705 L13.580123,0.998360656 L25.3317623,0.998360656 L25.3442623,5.99569672 L22.5973361,6.0022541 L22.5973361,16.0106557 L16.3168033,16.0106557 L16.3168033,5.96557377 L7.49282787,5.99118852 L7.50307377,3.92602459 L6.2227459,3.92602459 L6.24672131,5.91639344 C8.66168033,7.24856557 12.2034836,6.98729508 13.5485656,9.84180328 C16.3297131,19.0266393 -1.31905738,18.6602459 0.121311475,11.5717213 L6.19815574,11.5717213 L6.18790984,13.3170082 L7.4682377,13.3170082 L7.4682377,11.3346311 C5.4432377,10.4508197 3.35,9.96680328 1.95963115,8.86270492 C0.217827869,7.4795082 -0.193032787,4.75204918 1.98831967,2.19139344" mask="url(#airquest-logo-d)"/>
    </g>
    <polygon fill="#005086" points="16.406 16.011 22.708 16.011 22.708 .998 16.406 .998"/>
    <path fill="#005086" d="M45.7063525 16.607582C45.5045082 16.622541 45.3004098 16.630123 45.094877 16.630123 40.5504098 16.630123 36.8663934 12.9461066 36.8663934 8.40163934 36.8663934 3.85737705 40.5504098.173360656 45.094877.173360656 49.6391393.173360656 53.3231557 3.85737705 53.3231557 8.40163934 53.3231557 9.6920082 53.0262295 10.9129098 52.4969262 11.9997951L44.2752049 3.89344262 44.2752049 15.0614754 45.7063525 16.607582M61.3858607 16.0106557L59.1569672 16.0106557C56.8915984 16.1813525 54.7452869 15.2151639 54.7452869 12.0907787L54.7471311.998360656 60.8786885.998360656 60.8483607 13.155123 61.9231557 13.155123 61.892623.998360656 68.0245902.998360656 68.0262295 12.0907787C68.0262295 15.2151639 65.879918 16.1813525 63.6145492 16.0106557L61.3858607 16.0106557"/>
    <polyline fill="#D8232A" points="53.175 22.497 44.924 14.857 54.06 25 54.06 14.139 44.924 5.482 53.175 14.716 44.924 7.633 53.175 16.858 44.924 9.631 53.175 18.911 44.924 11.322 53.175 20.558 44.924 13.268 53.175 22.497"/>
  </g>
</svg>
